<?xml version="1.0" encoding="utf-8" ?>
<svg baseProfile="tiny" height="150" version="1.2" width="149" xmlns="http://www.w3.org/2000/svg" xmlns:ev="http://www.w3.org/2001/xml-events" xmlns:xlink="http://www.w3.org/1999/xlink"><defs /><path d="M 0.0,73.65217391304348 L 0.6122448979591837,73.0 L 1.0,72.67241379310344 L 1.7647058823529411,72.0 L 2.0,71.84210526315789 L 2.914285714285714,71.0 L 3.0,70.9047619047619 L 3.6951219512195124,70.0 L 4.0,69.35897435897436 L 4.269230769230769,69.0 L 4.662650602409639,68.0 L 4.838383838383838,67.0 L 4.958333333333333,66.0 L 4.938775510204081,65.0 L 4.879518072289157,64.0 L 4.903614457831325,63.0 L 4.926829268292683,62.0 L 5.0,61.25 L 5.046511627906977,61.0 L 5.352941176470588,60.0 L 5.767857142857143,59.0 L 6.0,58.13333333333333 L 6.044444444444444,58.0 L 6.104166666666667,57.0 L 6.085106382978723,56.0 L 6.150943396226415,55.0 L 6.127272727272727,54.0 L 6.055555555555555,53.0 L 6.0,52.25 L 5.9875,52.0 L 5.949367088607595,51.0 L 5.910256410256411,50.0 L 5.894736842105263,49.0 L 5.881578947368421,48.0 L 5.881578947368421,47.0 L 5.883116883116883,46.0 L 5.734375,45.0 L 5.714285714285714,44.0 L 5.661290322580645,43.0 L 5.629032258064516,42.0 L 5.629032258064516,41.0 L 5.612903225806452,40.0 L 5.603174603174603,39.0 L 5.603174603174603,38.0 L 5.603174603174603,37.0 L 5.666666666666667,36.0 L 5.72972972972973,35.0 L 5.714285714285714,34.0 L 5.75,33.0 L 5.7631578947368425,32.0 L 5.776315789473684,31.0 L 5.802631578947368,30.0 L 5.833333333333333,29.0 L 5.871794871794872,28.0 L 5.924050632911392,27.0 L 5.857142857142857,26.0 L 5.867647058823529,25.0 L 5.897058823529412,24.0 L 5.9411764705882355,23.0 L 5.970588235294118,22.0 L 6.0,21.333333333333332 L 6.0212765957446805,21.0 L 6.122448979591836,20.0 L 6.288461538461538,19.0 L 6.481481481481482,18.0 L 6.767857142857143,17.0 L 7.0,16.48 L 7.2,16.0 L 7.597014925373134,15.0 L 8.0,14.372093023255815 L 8.290909090909091,14.0 L 9.0,13.170212765957446 L 9.16326530612245,13.0 L 10.0,12.108695652173912 L 10.125,12.0 L 11.0,11.125 L 11.131578947368421,11.0 L 12.0,10.108108108108109 L 12.093023255813954,10.0 L 13.0,9.093023255813954 L 13.08695652173913,9.0 L 14.0,8.08695652173913 L 14.090909090909092,8.0 L 15.0,7.333333333333333 L 15.588235294117647,7.0 L 16.0,6.791044776119403 L 17.0,6.549019607843137 L 18.0,6.36 L 19.0,6.411764705882353 L 20.0,6.470588235294118 L 21.0,6.44 L 22.0,6.549019607843137 L 22.958333333333332,7.0 L 23.0,7.023255813953488 L 24.0,7.568627450980392 L 24.536585365853657,8.0 L 25.0,8.365384615384615 L 25.825,9.0 L 26.0,9.152173913043478 L 27.0,9.857142857142858 L 27.119402985074625,10.0 L 28.0,10.936507936507937 L 28.065573770491802,11.0 L 28.603448275862068,12.0 L 28.869565217391305,13.0 L 28.375,14.0 L 28.0,14.283018867924529 L 27.0,14.152542372881356 L 26.742857142857144,14.0 L 26.0,13.518518518518519 L 25.363636363636363,13.0 L 25.0,12.666666666666666 L 24.25581395348837,12.0 L 24.0,11.770833333333334 L 23.0,11.207317073170731 L 22.0,11.0 L 21.0,10.195402298850574 L 20.0,10.070588235294117 L 19.0,10.055555555555555 L 18.0,10.132352941176471 L 17.0,10.962962962962964 L 16.96875,11.0 L 16.123076923076923,12.0 L 16.0,12.177777777777777 L 15.229166666666666,13.0 L 15.0,13.55 L 14.808510638297872,14.0 L 14.41025641025641,15.0 L 14.0,15.592592592592592 L 13.775510204081632,16.0 L 13.426229508196721,17.0 L 13.19047619047619,18.0 L 13.0,18.75 L 12.918367346938776,19.0 L 12.60655737704918,20.0 L 12.38888888888889,21.0 L 12.28,22.0 L 12.107692307692307,23.0 L 12.0,23.5 L 11.875,24.0 L 11.709677419354838,25.0 L 11.692307692307692,26.0 L 11.830508474576272,27.0 L 11.864406779661017,28.0 L 11.962962962962964,29.0 L 12.0,30.0 L 12.036363636363637,31.0 L 12.053571428571429,32.0 L 12.072727272727272,33.0 L 12.071428571428571,34.0 L 12.072727272727272,35.0 L 12.031746031746032,36.0 L 12.029411764705882,37.0 L 12.073529411764707,38.0 L 12.115942028985508,39.0 L 12.142857142857142,40.0 L 12.208333333333334,41.0 L 12.238805970149254,42.0 L 12.267605633802816,43.0 L 12.305555555555555,44.0 L 12.333333333333334,45.0 L 12.491525423728813,46.0 L 12.474576271186441,47.0 L 12.457627118644067,48.0 L 12.457627118644067,49.0 L 12.457627118644067,50.0 L 12.457627118644067,51.0 L 12.448275862068966,52.0 L 12.457627118644067,53.0 L 12.457627118644067,54.0 L 12.390625,55.0 L 12.323943661971832,56.0 L 12.338028169014084,57.0 L 12.352112676056338,58.0 L 12.347222222222221,59.0 L 12.301369863013699,60.0 L 12.17910447761194,61.0 L 12.0,61.48 L 11.775862068965518,62.0 L 11.294117647058824,63.0 L 11.0,63.54054054054054 L 10.757142857142856,64.0 L 10.430555555555555,65.0 L 10.185714285714285,66.0 L 10.0,66.28260869565217 L 9.46774193548387,67.0 L 9.153846153846153,68.0 L 9.0,68.48 L 8.729166666666666,69.0 L 8.2,70.0 L 8.02127659574468,71.0 L 8.0,71.03333333333333 L 7.171428571428572,72.0 L 7.0,72.10344827586206 L 6.0,72.6842105263158 L 5.5813953488372094,73.0 L 5.0,73.5 L 4.603174603174603,74.0 L 4.402777777777778,75.0 L 4.430769230769231,76.0 L 5.0,76.8409090909091 L 5.1521739130434785,77.0 L 6.0,77.66101694915254 L 6.526315789473684,78.0 L 7.0,78.38297872340425 L 8.0,79.0 L 9.0,79.6896551724138 L 9.382978723404255,80.0 L 10.0,80.49152542372882 L 10.545454545454545,81.0 L 11.0,81.45454545454545 L 11.483870967741936,82.0 L 12.0,82.60377358490567 L 12.304347826086957,83.0 L 12.814814814814815,84.0 L 13.0,84.38461538461539 L 13.271186440677965,85.0 L 13.535714285714286,86.0 L 13.68,87.0 L 13.729166666666666,88.0 L 13.708333333333334,89.0 L 13.76,90.0 L 13.686274509803921,91.0 L 13.436363636363636,92.0 L 13.19672131147541,93.0 L 13.0,93.66666666666667 L 12.894736842105264,94.0 L 12.892857142857142,95.0 L 13.0,95.75 L 13.027397260273972,96.0 L 13.11111111111111,97.0 L 13.169014084507042,98.0 L 13.228571428571428,99.0 L 13.279411764705882,100.0 L 13.265625,101.0 L 13.183098591549296,102.0 L 13.08955223880597,103.0 L 13.03225806451613,104.0 L 13.0,104.33333333333333 L 12.925925925925926,105.0 L 12.842105263157894,106.0 L 12.745762711864407,107.0 L 12.689655172413794,108.0 L 12.620689655172415,109.0 L 12.576271186440678,110.0 L 12.543859649122806,111.0 L 12.508474576271187,112.0 L 12.347826086956522,113.0 L 12.338028169014084,114.0 L 12.32857142857143,115.0 L 12.323943661971832,116.0 L 12.314285714285715,117.0 L 12.32857142857143,118.0 L 12.348484848484848,119.0 L 12.333333333333334,120.0 L 12.314285714285715,121.0 L 12.363636363636363,122.0 L 12.482758620689655,123.0 L 12.482758620689655,124.0 L 12.538461538461538,125.0 L 12.770833333333334,126.0 L 13.0,126.78571428571429 L 13.065217391304348,127.0 L 13.551020408163264,128.0 L 14.0,128.8148148148148 L 14.106382978723405,129.0 L 15.0,129.89361702127658 L 15.092592592592593,130.0 L 16.0,130.8448275862069 L 16.115384615384617,131.0 L 17.0,131.9718309859155 L 17.033333333333335,132.0 L 18.0,132.95081967213116 L 18.272727272727273,133.0 L 19.0,133.1904761904762 L 20.0,133.25581395348837 L 21.0,133.31914893617022 L 22.0,133.36363636363637 L 23.0,133.38888888888889 L 24.0,133.5151515151515 L 25.0,133.38888888888889 L 25.875,133.0 L 26.0,132.92307692307693 L 26.09090909090909,133.0 L 26.181818181818183,134.0 L 26.0,134.28571428571428 L 25.41176470588235,135.0 L 25.0,135.23333333333332 L 24.0,135.8 L 23.666666666666668,136.0 L 23.0,136.19230769230768 L 22.0,136.28846153846155 L 21.0,136.2962962962963 L 20.0,136.29310344827587 L 19.0,136.20689655172413 L 18.0,136.08620689655172 L 17.5,136.0 L 17.0,135.88636363636363 L 16.0,135.4 L 15.0,135.20967741935485 L 14.458333333333334,135.0 L 14.0,134.7962962962963 L 13.0,134.32258064516128 L 12.5,134.0 L 12.0,133.62264150943398 L 11.326530612244898,133.0 L 11.0,132.64444444444445 L 10.56060606060606,132.0 L 10.0,131.3148148148148 L 9.742424242424242,131.0 L 9.245901639344263,130.0 L 9.0,129.42307692307693 L 8.819672131147541,129.0 L 8.546875,128.0 L 8.338461538461539,127.0 L 8.178571428571429,126.0 L 8.0,125.54545454545455 L 7.830985915492958,125.0 L 7.625,124.0 L 7.458333333333333,123.0 L 7.338461538461538,122.0 L 7.290322580645161,121.0 L 7.25,120.0 L 7.266666666666667,119.0 L 7.233333333333333,118.0 L 7.206896551724138,117.0 L 7.175438596491228,116.0 L 7.111111111111111,115.0 L 7.0,114.0 L 6.945454545454545,113.0 L 6.940298507462686,112.0 L 6.890410958904109,111.0 L 6.863013698630137,110.0 L 6.863013698630137,109.0 L 6.821917808219178,108.0 L 6.819444444444445,107.0 L 6.76056338028169,106.0 L 6.704225352112676,105.0 L 6.63768115942029,104.0 L 6.491803278688525,103.0 L 6.425925925925926,102.0 L 6.462962962962963,101.0 L 6.452830188679245,100.0 L 6.4423076923076925,99.0 L 6.444444444444445,98.0 L 6.433962264150943,97.0 L 6.425925925925926,96.0 L 6.407407407407407,95.0 L 6.37037037037037,94.0 L 6.396825396825397,93.0 L 6.274193548387097,92.0 L 6.054545454545455,91.0 L 6.0,90.8 L 5.835616438356165,90.0 L 5.611940298507463,89.0 L 5.368421052631579,88.0 L 5.137254901960785,87.0 L 5.0,86.41666666666667 L 4.943820224719101,86.0 L 4.8023255813953485,85.0 L 4.605263157894737,84.0 L 4.166666666666667,83.0 L 4.0,82.7 L 3.723684210526316,82.0 L 3.296875,81.0 L 3.0,80.53658536585365 L 2.639344262295082,80.0 L 2.0,79.04878048780488 L 1.9583333333333335,79.0 L 1.0208333333333333,78.0 L 1.0,77.97674418604652 L 0.023255813953488372,77.0 L 0.0,76.96666666666667 Z" fill="gray" stroke="black" stroke-width="1" /><path d="M 124.0,136.06756756756758 L 123.0,136.13333333333333 L 122.0,136.22222222222223 L 121.0,136.21818181818182 L 120.0,136.09615384615384 L 119.54545454545455,136.0 L 119.0,135.8235294117647 L 118.0,135.41463414634146 L 117.15,135.0 L 117.0,134.8695652173913 L 116.16666666666667,134.0 L 116.0,133.5 L 115.81818181818181,133.0 L 115.9375,132.0 L 116.0,131.98507462686567 L 117.0,132.0 L 118.0,132.78378378378378 L 118.47058823529412,133.0 L 119.0,133.25 L 120.0,133.29545454545453 L 121.0,133.27272727272728 L 122.0,133.26666666666668 L 123.0,133.30769230769232 L 124.0,133.29090909090908 L 125.0,133.11363636363637 L 125.2,133.0 L 125.97560975609755,132.0 L 126.0,131.96923076923076 L 127.0,131.0 L 128.0,130.2058823529412 L 128.19444444444446,130.0 L 129.0,129.06451612903226 L 129.0487804878049,129.0 L 129.55,128.0 L 129.85185185185185,127.0 L 130.0,126.6 L 130.23529411764707,126.0 L 130.4262295081967,125.0 L 130.53846153846155,124.0 L 130.58823529411765,123.0 L 130.68354430379748,122.0 L 130.68354430379748,121.0 L 130.67469879518072,120.0 L 130.6904761904762,119.0 L 130.6904761904762,118.0 L 130.68235294117648,117.0 L 130.67441860465115,116.0 L 130.6627906976744,115.0 L 130.6627906976744,114.0 L 130.66666666666666,113.0 L 130.57142857142858,112.0 L 130.57971014492753,111.0 L 130.59420289855072,110.0 L 130.59420289855072,109.0 L 130.58823529411765,108.0 L 130.56521739130434,107.0 L 130.52941176470588,106.0 L 130.47761194029852,105.0 L 130.3968253968254,104.0 L 130.34848484848484,103.0 L 130.18333333333334,102.0 L 130.11864406779662,101.0 L 130.10169491525423,100.0 L 130.1290322580645,99.0 L 130.171875,98.0 L 130.24242424242425,97.0 L 130.33333333333334,96.0 L 130.42666666666668,95.0 L 130.4189189189189,94.0 L 130.10714285714286,93.0 L 130.0,92.6470588235294 L 129.80357142857142,92.0 L 129.55,91.0 L 129.43548387096774,90.0 L 129.44262295081967,89.0 L 129.4516129032258,88.0 L 129.55,87.0 L 129.74137931034483,86.0 L 130.0,85.16666666666667 L 130.05357142857142,85.0 L 130.46478873239437,84.0 L 130.8918918918919,83.0 L 131.0,82.86440677966101 L 131.62962962962962,82.0 L 132.0,81.44444444444444 L 132.45283018867926,81.0 L 133.0,80.40816326530613 L 133.51282051282053,80.0 L 134.0,79.58695652173913 L 134.72972972972974,79.0 L 135.0,78.82758620689656 L 136.0,78.23913043478261 L 136.33333333333334,78.0 L 137.0,77.68115942028986 L 138.0,77.13207547169812 L 138.14893617021278,77.0 L 138.7536231884058,76.0 L 138.83333333333334,75.0 L 138.63793103448276,74.0 L 138.0,73.35087719298245 L 137.5744680851064,73.0 L 137.0,72.59701492537313 L 136.0,72.01515151515152 L 135.98245614035088,72.0 L 135.20833333333334,71.0 L 135.01960784313727,70.0 L 135.0,69.96774193548387 L 134.55223880597015,69.0 L 134.16981132075472,68.0 L 134.0,67.64 L 133.77777777777777,67.0 L 133.0,66.01754385964912 L 132.98888888888888,66.0 L 132.76470588235293,65.0 L 132.24561403508773,64.0 L 132.0,63.63157894736842 L 131.71764705882353,63.0 L 131.32876712328766,62.0 L 131.0,61.172413793103445 L 130.93506493506493,61.0 L 130.80722891566265,60.0 L 130.75,59.0 L 130.78048780487805,58.0 L 130.77380952380952,57.0 L 130.78571428571428,56.0 L 130.73333333333332,55.0 L 130.69117647058823,54.0 L 130.69117647058823,53.0 L 130.65714285714284,52.0 L 130.70149253731344,51.0 L 130.70149253731344,50.0 L 130.66666666666666,49.0 L 130.65714285714284,48.0 L 130.69565217391303,47.0 L 130.61111111111111,46.0 L 130.75862068965517,45.0 L 130.775,44.0 L 130.81927710843374,43.0 L 130.8641975308642,42.0 L 130.8641975308642,41.0 L 130.9102564102564,40.0 L 130.93506493506493,39.0 L 130.93506493506493,38.0 L 131.0,37.166666666666664 L 131.01785714285714,37.0 L 131.08196721311475,36.0 L 131.0344827586207,35.0 L 131.08064516129033,34.0 L 131.06666666666666,33.0 L 131.08196721311475,32.0 L 131.09677419354838,31.0 L 131.11111111111111,30.0 L 131.16666666666666,29.0 L 131.22857142857143,28.0 L 131.24657534246575,27.0 L 131.34146341463415,26.0 L 131.32926829268294,25.0 L 131.24324324324326,24.0 L 131.08064516129033,23.0 L 131.0,22.615384615384617 L 130.8987341772152,22.0 L 130.7764705882353,21.0 L 130.5897435897436,20.0 L 130.2923076923077,19.0 L 130.0,18.17391304347826 L 129.94117647058823,18.0 L 129.70422535211267,17.0 L 129.4262295081967,16.0 L 129.0,15.380952380952381 L 128.6734693877551,15.0 L 128.36363636363637,14.0 L 128.0,13.310344827586206 L 127.8125,13.0 L 127.0,12.133333333333333 L 126.89285714285714,12.0 L 126.0,11.107142857142858 L 125.89285714285714,11.0 L 125.0,10.193548387096774 L 124.0,10.128571428571428 L 123.0,10.126760563380282 L 122.0,10.1875 L 121.03703703703704,11.0 L 121.0,11.027777777777779 L 120.0,11.2 L 119.0,11.95 L 118.94117647058823,12.0 L 118.0,12.820512820512821 L 117.79411764705883,13.0 L 117.0,13.5 L 116.0,13.883720930232558 L 115.0,13.782608695652174 L 114.63265306122449,13.0 L 114.88888888888889,12.0 L 115.0,11.794117647058824 L 115.5,11.0 L 116.0,10.55 L 116.6,10.0 L 117.0,9.584905660377359 L 117.56363636363636,9.0 L 118.0,8.612903225806452 L 118.77551020408163,8.0 L 119.0,7.7924528301886795 L 120.0,7.25531914893617 L 120.41379310344827,7.0 L 121.0,6.66 L 122.0,6.584905660377358 L 123.0,6.63076923076923 L 124.0,6.606060606060606 L 125.0,6.578125 L 126.0,6.578125 L 127.0,6.8059701492537314 L 127.48148148148148,7.0 L 128.0,7.264150943396227 L 129.0,7.913793103448276 L 129.11363636363637,8.0 L 130.0,8.795918367346939 L 130.17543859649123,9.0 L 131.0,9.903846153846153 L 131.0625,10.0 L 131.84313725490196,11.0 L 132.0,11.16 L 132.75,12.0 L 133.0,12.304347826086957 L 133.7111111111111,13.0 L 134.0,13.245283018867925 L 134.72727272727272,14.0 L 135.0,14.365853658536585 L 135.4406779661017,15.0 L 135.95833333333334,16.0 L 136.0,16.076923076923077 L 136.42105263157896,17.0 L 136.75,18.0 L 137.0,18.923076923076923 L 137.01388888888889,19.0 L 137.13333333333333,20.0 L 137.2051282051282,21.0 L 137.25316455696202,22.0 L 137.28205128205127,23.0 L 137.31645569620252,24.0 L 137.35064935064935,25.0 L 137.33766233766235,26.0 L 137.25882352941176,27.0 L 137.33333333333334,28.0 L 137.40506329113924,29.0 L 137.46052631578948,30.0 L 137.48,31.0 L 137.51351351351352,32.0 L 137.55072463768116,33.0 L 137.55072463768116,34.0 L 137.54166666666666,35.0 L 137.625,36.0 L 137.7,37.0 L 137.71186440677965,38.0 L 137.71186440677965,39.0 L 137.672131147541,40.0 L 137.672131147541,41.0 L 137.672131147541,42.0 L 137.625,43.0 L 137.5909090909091,44.0 L 137.56521739130434,45.0 L 137.42168674698794,46.0 L 137.4268292682927,47.0 L 137.4268292682927,48.0 L 137.41666666666666,49.0 L 137.38372093023256,50.0 L 137.3370786516854,51.0 L 137.27058823529413,52.0 L 137.17977528089887,53.0 L 137.1011235955056,54.0 L 137.0609756097561,55.0 L 137.1095890410959,56.0 L 137.12,57.0 L 137.17333333333335,58.0 L 137.40983606557376,59.0 L 137.9777777777778,60.0 L 138.0,60.05555555555556 L 138.20731707317074,61.0 L 138.27586206896552,62.0 L 138.27586206896552,63.0 L 138.27058823529413,64.0 L 138.16666666666666,65.0 L 138.17525773195877,66.0 L 138.31372549019608,67.0 L 138.5,68.0 L 138.9387755102041,69.0 L 139.0,69.07894736842105 L 139.45454545454547,70.0 L 140.0,70.82352941176471 L 140.15,71.0 L 141.0,71.76119402985074 L 141.45714285714286,72.0 L 142.0,72.40425531914893 L 142.8235294117647,73.0 L 143.0,73.16666666666667 L 143.47619047619048,74.0 L 143.5625,75.0 L 143.3230769230769,76.0 L 143.0,76.6774193548387 L 142.8,77.0 L 142.0,77.7843137254902 L 141.7962962962963,78.0 L 141.09859154929578,79.0 L 141.0,79.1842105263158 L 140.42592592592592,80.0 L 140.0,80.65714285714286 L 139.8,81.0 L 139.41176470588235,82.0 L 139.0,82.90322580645162 L 138.94444444444446,83.0 L 138.5681818181818,84.0 L 138.37234042553192,85.0 L 138.3030303030303,86.0 L 138.24761904761905,87.0 L 138.11764705882354,88.0 L 138.0,88.52173913043478 L 137.7962962962963,89.0 L 137.46835443037975,90.0 L 137.23655913978496,91.0 L 137.04301075268816,92.0 L 137.0,92.28571428571429 L 136.80392156862746,93.0 L 136.85106382978722,94.0 L 136.79591836734693,95.0 L 136.74,96.0 L 136.71153846153845,97.0 L 136.7058823529412,98.0 L 136.7058823529412,99.0 L 136.7058823529412,100.0 L 136.72549019607843,101.0 L 136.8125,102.0 L 136.74,103.0 L 136.53333333333333,104.0 L 136.43076923076924,105.0 L 136.35294117647058,106.0 L 136.31944444444446,107.0 L 136.30666666666667,108.0 L 136.3,109.0 L 136.27027027027026,110.0 L 136.25333333333333,111.0 L 136.23684210526315,112.0 L 136.35384615384615,113.0 L 136.33333333333334,114.0 L 136.25757575757575,115.0 L 136.2089552238806,116.0 L 136.17910447761193,117.0 L 136.1492537313433,118.0 L 136.1044776119403,119.0 L 136.10294117647058,120.0 L 136.04545454545453,121.0 L 136.0,121.5 L 135.93617021276594,122.0 L 135.61666666666667,123.0 L 135.3939393939394,124.0 L 135.15942028985506,125.0 L 135.0,125.73333333333333 L 134.92727272727274,126.0 L 134.65573770491804,127.0 L 134.5151515151515,128.0 L 134.22058823529412,129.0 L 134.0,129.45454545454547 L 133.7,130.0 L 133.19718309859155,131.0 L 133.0,131.38888888888889 L 132.63934426229508,132.0 L 132.0,132.975 L 131.97368421052633,133.0 L 131.0,133.72549019607843 L 130.6315789473684,134.0 L 130.0,134.39344262295083 L 129.0,134.83018867924528 L 128.52631578947367,135.0 L 128.0,135.15625 L 127.0,135.37704918032787 L 126.0,135.73076923076923 L 125.0,135.91666666666666 L 124.55555555555556,136.0 L 124.0,136.06756756756758 Z" fill="gray" stroke="black" stroke-width="1" /><path d="M 100.0,77.01449275362319 L 99.0,77.04285714285714 L 98.4,77.0 L 98.0,76.95918367346938 L 97.0,76.75 L 96.0,76.51515151515152 L 95.0,76.40697674418605 L 94.0,76.23863636363636 L 93.36363636363636,76.0 L 93.0,75.77358490566037 L 92.0,75.3913043478261 L 91.0,75.1625 L 90.0,75.04545454545455 L 89.75,75.0 L 89.0,74.78947368421052 L 88.0,74.41428571428571 L 87.0,74.09210526315789 L 86.7741935483871,74.0 L 86.0,73.57894736842105 L 85.15384615384616,73.0 L 85.0,72.87234042553192 L 84.12765957446808,72.0 L 84.0,71.87755102040816 L 83.45569620253164,71.0 L 83.0,70.41935483870968 L 82.69767441860465,70.0 L 82.0,69.03225806451613 L 81.97260273972603,69.0 L 81.47435897435898,68.0 L 81.0,67.05128205128206 L 80.97014925373135,67.0 L 80.49295774647888,66.0 L 80.13559322033899,65.0 L 80.0,64.76470588235294 L 79.54385964912281,64.0 L 79.11111111111111,63.0 L 79.0,62.73684210526316 L 78.81818181818181,62.0 L 78.64285714285714,61.0 L 78.47457627118644,60.0 L 78.3859649122807,59.0 L 78.40983606557377,58.0 L 78.44262295081967,57.0 L 78.52307692307693,56.0 L 78.6923076923077,55.0 L 78.82758620689656,54.0 L 78.9,53.0 L 79.0,52.0 L 79.28571428571429,51.0 L 79.68181818181819,50.0 L 80.0,49.19230769230769 L 80.08771929824562,49.0 L 80.5,48.0 L 80.97014925373135,47.0 L 81.0,46.95744680851064 L 81.52941176470588,46.0 L 82.0,45.2 L 82.17857142857143,45.0 L 83.0,44.0 L 84.0,43.21568627450981 L 84.24444444444444,43.0 L 85.0,42.35849056603774 L 85.41304347826087,42.0 L 86.0,41.557377049180324 L 86.54838709677419,41.0 L 87.0,40.588235294117645 L 87.58823529411765,40.0 L 88.0,39.65 L 88.78787878787878,39.0 L 89.0,38.81818181818182 L 90.0,38.25 L 90.35714285714286,38.0 L 91.0,37.59701492537313 L 92.0,37.07692307692308 L 92.13793103448276,37.0 L 93.0,36.56896551724138 L 94.0,36.08163265306123 L 94.17391304347827,36.0 L 95.0,35.79347826086956 L 96.0,35.620253164556964 L 97.0,35.470588235294116 L 98.0,35.30508474576271 L 99.0,35.2037037037037 L 100.0,35.18518518518518 L 101.0,35.18867924528302 L 102.0,35.31666666666667 L 103.0,35.484848484848484 L 104.0,35.640625 L 105.0,35.89230769230769 L 105.30434782608695,36.0 L 106.0,36.32 L 107.0,36.766666666666666 L 107.53846153846153,37.0 L 108.0,37.206896551724135 L 109.0,37.72857142857143 L 109.40425531914893,38.0 L 110.0,38.411764705882355 L 110.88888888888889,39.0 L 111.0,39.09090909090909 L 112.0,39.921875 L 112.1,40.0 L 113.0,40.714285714285715 L 113.25352112676056,41.0 L 114.0,41.91379310344828 L 114.078125,42.0 L 114.65151515151516,43.0 L 115.0,43.575 L 115.28333333333333,44.0 L 115.80701754385964,45.0 L 116.0,45.36666666666667 L 116.27142857142857,46.0 L 116.6774193548387,47.0 L 117.0,47.54054054054054 L 117.23611111111111,48.0 L 117.65,49.0 L 118.0,49.724137931034484 L 118.0952380952381,50.0 L 118.3896103896104,51.0 L 118.76923076923077,52.0 L 119.0,52.5 L 119.11538461538461,53.0 L 119.24489795918367,54.0 L 119.40697674418605,55.0 L 119.61764705882354,56.0 L 119.83636363636364,57.0 L 120.0,57.42857142857143 L 120.15789473684211,58.0 L 120.1948051948052,59.0 L 120.21794871794872,60.0 L 120.21518987341773,61.0 L 120.05797101449275,62.0 L 120.0,62.166666666666664 L 119.6774193548387,63.0 L 119.43589743589743,64.0 L 119.14285714285714,65.0 L 119.0,65.3409090909091 L 118.53968253968254,66.0 L 118.0,67.0 L 117.25,68.0 L 117.0,68.31914893617021 L 116.41818181818182,69.0 L 116.0,69.41818181818182 L 115.41818181818182,70.0 L 115.0,70.31506849315069 L 114.15254237288136,71.0 L 114.0,71.10588235294118 L 113.0,71.75384615384615 L 112.64444444444445,72.0 L 112.0,72.44615384615385 L 111.0,72.89090909090909 L 110.80645161290323,73.0 L 110.0,73.40322580645162 L 109.0,73.81818181818181 L 108.64285714285714,74.0 L 108.0,74.24657534246575 L 107.0,74.61904761904762 L 106.11111111111111,75.0 L 106.0,75.0379746835443 L 105.0,75.43333333333334 L 104.0,75.97674418604652 L 103.95238095238095,76.0 L 103.0,76.23529411764706 L 102.0,76.52857142857142 L 101.0,76.81481481481481 L 100.0909090909091,77.0 L 100.0,77.01449275362319 Z" fill="gray" stroke="black" stroke-width="1" /><path d="M 35.0,102.2439024390244 L 34.0,102.44705882352942 L 33.0,102.60526315789474 L 32.0,102.74647887323944 L 31.0,102.85074626865672 L 30.0,102.890625 L 29.0,102.90625 L 28.0,102.87878787878788 L 27.0,102.82857142857142 L 26.0,102.74324324324324 L 25.0,102.66666666666667 L 24.0,102.56976744186046 L 23.0,102.3855421686747 L 22.0,102.05333333333333 L 21.906976744186046,102.0 L 21.0,101.44285714285714 L 20.41509433962264,101.0 L 20.0,100.5 L 19.58490566037736,100.0 L 19.12962962962963,99.0 L 19.0,98.5625 L 18.85,98.0 L 18.728813559322035,97.0 L 18.732142857142858,96.0 L 18.76271186440678,95.0 L 18.966101694915253,94.0 L 19.0,93.92592592592592 L 19.37878787878788,93.0 L 19.791044776119403,92.0 L 20.0,91.67441860465117 L 20.426470588235293,91.0 L 21.0,90.1875 L 21.15,90.0 L 22.0,89.15 L 22.1875,89.0 L 23.0,88.48 L 23.6,88.0 L 24.0,87.67123287671232 L 24.96078431372549,87.0 L 25.0,86.9672131147541 L 26.0,86.02325581395348 L 26.02127659574468,86.0 L 26.855072463768117,85.0 L 27.0,84.85074626865672 L 27.82608695652174,84.0 L 28.0,83.86666666666666 L 28.906976744186046,83.0 L 29.0,82.89189189189189 L 29.846153846153847,82.0 L 30.0,81.78947368421052 L 30.75,81.0 L 31.0,80.71698113207547 L 31.666666666666668,80.0 L 32.0,79.66666666666667 L 32.622950819672134,79.0 L 33.0,78.64615384615385 L 33.608695652173914,78.0 L 34.0,77.66666666666667 L 34.73972602739726,77.0 L 35.0,76.77380952380952 L 35.955882352941174,76.0 L 36.0,75.94827586206897 L 37.0,75.10416666666667 L 37.125,75.0 L 38.0,74.39655172413794 L 38.48936170212766,74.0 L 39.0,73.59322033898304 L 39.59322033898305,73.0 L 40.0,72.63636363636364 L 40.724137931034484,72.0 L 41.0,71.78947368421052 L 41.96774193548387,71.0 L 42.0,70.97368421052632 L 43.0,70.28813559322033 L 43.34,70.0 L 44.0,69.484375 L 44.55357142857143,69.0 L 45.0,68.59677419354838 L 45.58730158730159,68.0 L 46.0,67.52727272727273 L 46.58,67.0 L 47.0,66.65573770491804 L 47.70175438596491,66.0 L 48.0,65.74626865671642 L 48.86206896551724,65.0 L 49.0,64.90123456790124 L 50.0,64.265625 L 50.29824561403509,64.0 L 51.0,63.34426229508197 L 51.33870967741935,63.0 L 52.0,62.18 L 52.18,62.0 L 53.0,61.16326530612245 L 53.18181818181818,61.0 L 54.0,60.294117647058826 L 54.30612244897959,60.0 L 55.0,59.392857142857146 L 55.392857142857146,59.0 L 56.0,58.46031746031746 L 56.54716981132076,58.0 L 57.0,57.60655737704918 L 57.72549019607843,57.0 L 58.0,56.75438596491228 L 58.97727272727273,56.0 L 59.0,55.98461538461538 L 60.0,55.32727272727273 L 60.41860465116279,55.0 L 61.0,54.596774193548384 L 61.698113207547166,54.0 L 62.0,53.753846153846155 L 62.89090909090909,53.0 L 63.0,52.926829268292686 L 64.0,52.397260273972606 L 64.5576923076923,52.0 L 65.0,51.67142857142857 L 66.0,51.359375 L 66.88461538461539,51.0 L 67.0,50.94444444444444 L 68.0,50.63934426229508 L 69.0,50.483870967741936 L 70.0,50.41935483870968 L 71.0,50.557377049180324 L 72.0,50.96153846153846 L 72.04651162790698,51.0 L 72.97777777777777,52.0 L 73.0,52.05263157894737 L 73.29032258064517,53.0 L 73.46666666666667,54.0 L 73.52459016393442,55.0 L 73.53846153846153,56.0 L 73.578125,57.0 L 73.60317460317461,58.0 L 73.609375,59.0 L 73.61538461538461,60.0 L 73.56716417910448,61.0 L 73.5,62.0 L 73.41428571428571,63.0 L 73.35211267605634,64.0 L 73.4,65.0 L 73.44615384615385,66.0 L 73.55384615384615,67.0 L 73.73333333333333,68.0 L 74.0,68.88888888888889 L 74.02597402597402,69.0 L 74.33802816901408,70.0 L 74.67796610169492,71.0 L 75.0,71.54285714285714 L 75.22222222222223,72.0 L 75.8125,73.0 L 76.0,73.2 L 76.59016393442623,74.0 L 77.0,74.43103448275862 L 77.70212765957447,75.0 L 78.0,75.24561403508773 L 79.0,75.73770491803279 L 79.55172413793103,76.0 L 80.0,76.203125 L 81.0,76.54166666666667 L 82.0,76.8529411764706 L 82.38461538461539,77.0 L 83.0,77.25806451612904 L 84.0,77.7948717948718 L 84.61538461538461,78.0 L 85.0,78.20408163265306 L 86.0,78.6470588235294 L 86.75,79.0 L 87.0,79.17391304347827 L 88.0,79.9090909090909 L 88.0909090909091,80.0 L 88.89795918367346,81.0 L 89.0,81.2 L 89.21739130434783,82.0 L 89.23913043478261,83.0 L 89.1375,84.0 L 89.0,84.30555555555556 L 88.58333333333333,85.0 L 88.0,85.97222222222223 L 87.97435897435898,86.0 L 87.0,86.97435897435898 L 86.96774193548387,87.0 L 86.0,87.61224489795919 L 85.38709677419355,88.0 L 85.0,88.16216216216216 L 84.0,88.5 L 83.0,89.0 L 82.0,89.23333333333333 L 81.0,89.6969696969697 L 80.53488372093024,90.0 L 80.0,90.28048780487805 L 79.0,90.61643835616438 L 78.17647058823529,91.0 L 78.0,91.08450704225352 L 77.0,91.425 L 76.0,91.6086956521739 L 75.03571428571429,92.0 L 75.0,92.01515151515152 L 74.0,92.49152542372882 L 73.0,92.84615384615384 L 72.46666666666667,93.0 L 72.0,93.07865168539325 L 71.0,93.28048780487805 L 70.0,93.53030303030303 L 69.0,93.90196078431373 L 68.61538461538461,94.0 L 68.0,94.08602150537635 L 67.0,94.24418604651163 L 66.0,94.5068493150685 L 65.0,94.92 L 64.85185185185185,95.0 L 64.0,95.27380952380952 L 63.0,95.41333333333333 L 62.0,95.67692307692307 L 61.19230769230769,96.0 L 61.0,96.078125 L 60.0,96.34615384615384 L 59.0,96.5 L 58.0,96.66666666666667 L 57.0,96.9672131147541 L 56.875,97.0 L 56.0,97.23728813559322 L 55.0,97.37142857142857 L 54.0,97.54054054054055 L 53.0,97.765625 L 52.34782608695652,98.0 L 52.0,98.11267605633803 L 51.0,98.43283582089552 L 50.0,98.62903225806451 L 49.0,98.79629629629629 L 48.3125,99.0 L 48.0,99.07042253521126 L 47.0,99.39473684210526 L 46.0,99.57627118644068 L 45.03846153846154,100.0 L 45.0,100.01388888888889 L 44.0,100.18461538461538 L 43.0,100.49090909090908 L 42.0,100.91304347826087 L 41.63636363636363,101.0 L 41.0,101.0886075949367 L 40.0,101.28089887640449 L 39.0,101.37209302325581 L 38.0,101.51948051948052 L 37.0,101.71212121212122 L 36.0,101.96296296296296 L 35.90909090909091,102.0 L 35.0,102.2439024390244 Z" fill="gray" stroke="black" stroke-width="1" /></svg>